<svg width="138" height="38" viewBox="0 0 138 38" fill="none" xmlns="http://www.w3.org/2000/svg">
<g clip-path="url(#clip0_2172_14)">
<path d="M98.4139 0H101.821V3.40741H98.4139V0ZM128.58 8.01743C131.185 7.91721 133.59 9.01961 135.294 10.9237C137.098 13.0283 138.1 15.634 138 18.3399C138 18.4401 138 18.841 137.9 19.6427H122.266C122.466 23.2505 125.473 25.9564 129.081 25.8562C131.386 25.8562 133.49 24.9543 135.194 23.451L136.998 25.8562C134.793 27.8606 131.786 28.963 128.78 28.8627C126.074 28.963 123.468 27.9608 121.564 25.9564C119.66 23.9521 118.658 21.2462 118.758 18.4401C118.658 15.634 119.66 12.9281 121.564 10.9237C123.368 9.01961 125.974 8.01743 128.58 8.01743V8.01743ZM128.58 11.024C126.976 10.9237 125.473 11.5251 124.37 12.6275C123.268 13.7298 122.566 15.2331 122.366 16.8366H134.593C134.492 15.2331 133.791 13.7298 132.688 12.6275C131.486 11.6253 130.083 11.024 128.58 11.024V11.024ZM112.946 28.8627H109.538V0H112.946V28.8627ZM3.00653 11.4248C5.01089 9.42048 7.71677 8.31808 10.5229 8.4183C13.329 8.31808 16.0349 9.42048 18.0392 11.4248C20.0436 13.329 21.146 16.0349 21.0457 18.841C21.146 21.6471 20.0436 24.3529 18.0392 26.2571C16.0349 28.2614 13.329 29.3638 10.5229 29.2636C7.71677 29.3638 5.01089 28.2614 3.00653 26.2571C1.00218 24.3529 -0.100219 21.6471 -1.08484e-06 18.841C-0.100219 16.0349 1.00218 13.329 3.00653 11.4248V11.4248ZM10.5229 11.6253C8.61873 11.5251 6.81481 12.3268 5.51198 13.6296C4.20915 15.0327 3.40741 16.8366 3.50762 18.7407C3.40741 20.6449 4.20915 22.549 5.51198 23.8519C6.81481 25.1547 8.61873 25.9564 10.5229 25.8562C12.427 25.9564 14.2309 25.1547 15.5338 23.8519C16.8366 22.4488 17.6383 20.6449 17.5381 18.7407C17.6383 16.8366 16.8366 14.9325 15.5338 13.6296C14.2309 12.3268 12.427 11.6253 10.5229 11.6253V11.6253ZM65.1416 28.8627H61.7342V26.1569C60.0305 28.1612 57.4248 29.3638 54.7189 29.2636C52.0131 29.3638 49.4074 28.2614 47.6035 26.2571C45.6993 24.2527 44.5969 21.5468 44.6972 18.841C44.5969 16.0349 45.5991 13.4292 47.6035 11.4248C49.4074 9.5207 52.0131 8.4183 54.7189 8.51852C57.4248 8.4183 60.0305 9.5207 61.7342 11.6253V8.81917H65.1416V28.8627ZM55.1198 11.6253C53.2157 11.5251 51.4118 12.3268 50.1089 13.7298C48.8061 15.1329 48.1046 16.9368 48.2048 18.841C48.2048 20.7451 48.9063 22.549 50.2091 23.9521C52.915 26.658 57.3246 26.658 60.0305 23.9521C61.3333 22.549 62.0348 20.7451 61.9346 18.841C62.0348 16.9368 61.3333 15.1329 60.0305 13.7298C58.7277 12.3268 56.9237 11.6253 55.1198 11.6253V11.6253ZM101.821 28.8627H98.4139V8.81917H101.821V28.8627ZM80.7756 8.4183C83.4815 8.31808 85.9869 9.42048 87.6906 11.5251V8.81917H91.098V27.3595C91.2985 30.1656 90.1961 32.8715 88.1917 34.7756C86.0871 36.6797 83.281 37.5817 80.4749 37.4815C75.6645 37.4815 73.3595 35.9782 73.3595 35.9782L75.3638 33.3726C76.9673 34.1743 78.671 34.475 80.4749 34.475C82.3791 34.5752 84.2832 33.9739 85.6863 32.671C86.9891 31.3682 87.6906 29.5643 87.5904 27.6601V25.8562C85.9869 27.9608 83.3813 29.0632 80.6754 28.963C78.0697 29.0632 75.464 27.9608 73.5599 26.0566C71.6558 24.0523 70.6536 21.4466 70.7538 18.6405C70.6536 15.9346 71.6558 13.2288 73.5599 11.2244C75.5643 9.42048 78.1699 8.31808 80.7756 8.4183V8.4183ZM81.1765 11.6253C79.3725 11.5251 77.5686 12.3268 76.2658 13.6296C74.963 15.0327 74.3616 16.8366 74.3616 18.6405C74.2614 20.4444 74.963 22.2484 76.2658 23.6514C78.9717 26.3573 83.281 26.3573 85.9869 23.6514C87.2898 22.3486 87.9913 20.5447 87.8911 18.6405C87.9913 16.7364 87.2898 14.9325 85.9869 13.6296C84.7843 12.3268 83.0806 11.6253 81.1765 11.6253Z" fill="#4D4E50"/>
<path d="M49.3072 0H45.098L30.5664 18.841L38.3834 28.8627H42.5926L34.6754 18.5403L49.3072 0Z" fill="#A8A9AC"/>
<path d="M22.6493 8.81917H26.8584L34.6754 18.5403L19.6427 37.9826H15.4336L30.5665 18.841L22.6493 8.81917Z" fill="#C1272D"/>
</g>
<defs>
<clipPath id="clip0_2172_14">
<rect width="138" height="37.9826" fill="white"/>
</clipPath>
</defs>
</svg>
